Coordinates
version=1
nRows=19
nColumns=33
inDegrees=yes

Units are S.I. units (second, meters, Newtons, ...)
Angles are in degrees.

endheader
time	ground_thorax_rot_x	ground_thorax_rot_y	ground_thorax_rot_z	ground_thorax_tx	ground_thorax_ty	ground_thorax_tz	clav_prot_r	clav_elev_r	scapula_abduction_r	scapula_elevation_r	scapula_upward_rot_r	scapula_winging_r	shoulder_elv_r	plane_of_elev_r	axial_rot_r	elbow_flexion_r	pro_sup_r	wrist_flex_r	wrist_dev_r	clav_prot_l	clav_elev_l	scapula_abduction_l	scapula_elevation_l	scapula_upward_rot_l	scapula_winging_l	shoulder_elv_l	plane_of_elev_l	axial_rot_l	elbow_flexion_l	pro_sup_l	wrist_flex_l	wrist_dev_l
      3.76000000	    -38.80405472	     -8.39076499	     12.89080443	   -249.83941141	    849.13379889	      5.07199844	      7.94683369	    -45.00000000	     38.19077002	    -45.00000000	    -38.32556162	   2057.09485168	   -467.93402089	    147.21550846	   -111.57034063	   1102.29998990	    135.10162014	     10.69278702	      3.93041807	     -1.41846154	     42.70474916	    -45.00000000	    -45.00000000	     32.25054122	   -600.43264162	    807.78619905	     10.60753789	    179.99999979	   1814.73497481	    202.06603522	      9.17918560	    -16.48248665
      3.77000000	    -38.88322655	     -8.26737287	     12.81058803	   -249.99969958	    848.95997872	      5.05366435	      7.62426347	    -45.00000000	     37.88852354	    -45.00000000	    -38.52802213	   2057.20124958	   -467.90971344	    147.10417081	   -111.53259268	   1102.29055589	    135.06833387	     10.72511347	      3.89709325	     -1.46890274	     42.68635183	    -45.00000000	    -45.00000000	     32.35710139	   -600.42516115	    807.75829651	     10.61989916	    179.99999979	   1814.68971464	    202.08459868	      9.30400853	    -16.50458165
      3.78000000	    -38.84681009	     -8.45747703	     12.99128936	   -250.06303192	    848.78193792	      5.04052631	      7.70405148	    -45.00000000	     38.11689144	    -45.00000000	    -38.51448928	   2057.13500088	   -467.93246159	    147.24430762	   -111.68661043	   1102.33486676	    135.03346291	     10.67732313	      3.93981977	     -1.42510350	     42.70401625	    -45.00000000	    -45.00000000	     32.27965341	   -600.40870318	    807.85368113	     10.56354805	    179.99999979	   1814.73977533	    202.08135258	      9.15986081	    -16.50392103
      3.79000000	    -38.99764564	     -8.23461199	     12.89771188	   -250.03753279	    848.61445536	      5.03314436	      7.85296080	    -45.00000000	     37.69984897	    -45.00000000	    -38.59341542	   2057.16478592	   -468.05478870	    147.04849534	   -111.62611489	   1102.27343137	    134.97692705	     10.76609940	      3.84736240	     -1.44243872	     42.67023221	    -45.00000000	    -45.00000000	     32.32363049	   -600.36890265	    807.69078516	     10.70592793	    179.99999979	   1814.51212316	    202.08258873	      9.26813843	    -16.56653142
      3.80000000	    -38.87601040	     -8.56068168	     13.11860293	   -249.93344371	    848.44794604	      5.03058701	      7.69092027	    -45.00000000	     38.04878364	    -45.00000000	    -38.49201777	   2057.12746832	   -467.98565073	    147.25879757	   -111.82457567	   1102.37843477	    134.91224347	     10.65582400	      3.92295236	     -1.42009477	     42.72036762	    -45.00000000	    -45.00000000	     32.23413052	   -600.38745499	    807.82175975	     10.54179610	    179.99999979	   1814.62342474	    202.10256262	      9.17613736	    -16.55372063
      3.81000000	    -38.97501017	     -8.37358159	     12.96477335	   -249.76691514	    848.29727264	      5.03258358	      7.86081111	    -45.00000000	     37.85535010	    -45.00000000	    -38.55717967	   2057.23602375	   -468.03313271	    147.05401929	   -111.74175770	   1102.29508569	    134.83141665	     10.75965280	      3.80496661	     -1.42443527	     42.68541268	    -45.00000000	    -45.00000000	     32.29138075	   -600.38674849	    807.68029364	     10.67832245	    179.99999979	   1814.62894550	    202.14063567	      9.26088190	    -16.56071964
      3.82000000	    -38.86949089	     -8.73798497	     13.24098803	   -249.54750331	    848.15884018	      5.03773088	      7.63347846	    -45.00000000	     38.26796682	    -45.00000000	    -38.38977890	   2057.18039523	   -467.93494028	    147.33236499	   -111.96991655	   1102.45762442	    134.76175822	     10.60483202	      3.89790527	     -1.44473883	     42.72463409	    -45.00000000	    -45.00000000	     32.24581099	   -600.39187570	    807.95122415	     10.50784731	    179.99999979	   1814.66473314	    202.16188165	      9.19150560	    -16.54857098
      3.83000000	    -38.96086753	     -8.47529435	     13.04902571	   -249.28601017	    848.03568297	      5.04492835	      7.80605255	    -45.00000000	     37.99762230	    -45.00000000	    -38.38057899	   2057.25176583	   -467.98091220	    147.09708861	   -111.87060800	   1102.40759763	    134.65762659	     10.71871484	      3.75946368	     -1.44781923	     42.69974200	    -45.00000000	    -45.00000000	     32.42539521	   -600.35203066	    807.72168534	     10.64185291	    179.99999979	   1814.58721397	    202.20694049	      9.26777053	    -16.57025895
      3.84000000	    -38.91017361	     -8.60224612	     13.20505967	   -248.98609679	    847.92788488	      5.05327025	      7.75259781	    -45.00000000	     38.21831816	    -45.00000000	    -38.24883790	   2057.24448883	   -468.05259282	    147.25540663	   -111.99168414	   1102.32236633	    134.58348173	     10.66750621	      3.81633559	     -1.48382419	     42.66101505	    -45.00000000	    -45.00000000	     32.46992771	   -600.43000296	    807.87558205	     10.56581901	    179.99999979	   1814.67487435	    202.24568880	      9.24324892	    -16.52317860
      3.85000000	    -38.95770132	     -8.40072737	     13.00478622	   -248.64656360	    847.83392868	      5.06249368	      7.90500068	    -45.00000000	     37.99435985	    -45.00000000	    -38.18181567	   2057.28018058	   -467.99487854	    147.00154990	   -111.91206358	   1102.42450930	    134.49827592	     10.72515938	      3.68186329	     -1.48511156	     42.68046659	    -45.00000000	    -45.00000000	     32.65739469	   -600.31451846	    807.68749467	     10.66750082	    179.99999979	   1814.57114136	    202.28048709	      9.31223093	    -16.54486688
      3.86000000	    -38.91307632	     -8.46767174	     13.13587772	   -248.26249477	    847.75049813	      5.07259070	      7.79722952	    -45.00000000	     38.21983833	    -45.00000000	    -37.98057507	   2057.23311005	   -467.95155446	    147.13732645	   -112.00638436	   1102.44172349	    134.41906805	     10.65053182	      3.72031737	     -1.54479500	     42.63264574	    -45.00000000	    -45.00000000	     32.81834491	   -600.39683562	    807.82344491	     10.58019959	    179.99999979	   1814.56540850	    202.31107804	      9.29606534	    -16.51992153
      3.87000000	    -38.93191834	     -8.49304024	     13.13536768	   -247.82684552	    847.67223849	      5.08394288	      7.86316825	    -45.00000000	     38.23532580	    -45.00000000	    -37.83859751	   2057.31897819	   -468.02339214	    147.15590568	   -112.00922573	   1102.38370858	    134.35617130	     10.67202778	      3.66748651	     -1.55418188	     42.63051265	    -45.00000000	    -45.00000000	     32.99723599	   -600.31865112	    807.83743363	     10.64425870	    179.99999979	   1814.63526755	    202.35357309	      9.35508528	    -16.47983811
      3.88000000	    -38.88199956	     -8.47008541	     13.16546106	   -247.33741846	    847.59321621	      5.09668131	      7.85193891	    -45.00000000	     38.48838252	    -45.00000000	    -37.69088220	   2057.28778272	   -467.97322108	    147.21161158	   -112.06930152	   1102.45928872	    134.30940982	     10.60040489	      3.67435461	     -1.64280651	     42.57185394	    -45.00000000	    -45.00000000	     33.17871437	   -600.44201488	    807.87830239	     10.50724866	    179.99999979	   1814.67005078	    202.37886320	      9.35800721	    -16.43713013
      3.89000000	    -38.89124518	     -8.39949060	     13.20991263	   -246.78135282	    847.50486296	      5.11125376	      7.96676681	    -45.00000000	     38.26377255	    -45.00000000	    -37.48404217	   2057.36946682	   -468.04344181	    147.14750774	   -112.08145687	   1102.19122261	    134.28662786	     10.68874072	      3.62050162	     -1.58927791	     42.60923296	    -45.00000000	    -45.00000000	     33.48399999	   -600.18414099	    807.82061066	     10.75596216	    179.99999979	   1814.56122175	    202.40248504	      9.44203503	    -16.43943714
      3.90000000	    -38.86665880	     -8.49642122	     13.20068295	   -246.15543637	    847.40068383	      5.12758230	      7.87458744	    -45.00000000	     38.57888282	    -45.00000000	    -37.16683957	   2057.29932347	   -467.96702967	    147.17475281	   -112.23532686	   1102.48683499	    134.25505281	     10.52328647	      3.65519935	     -1.80955246	     42.49397075	    -45.00000000	    -45.00000000	     33.69949350	   -600.44872947	    808.05526032	     10.44592491	    179.99999979	   1814.61299887	    202.41811857	      9.39915893	    -16.37797650
      3.91000000	    -38.92469576	     -8.40818242	     13.08111929	   -245.45346084	    847.27447870	      5.14578151	      8.06417029	    -45.00000000	     38.54623281	    -45.00000000	    -37.04535412	   2057.44600137	   -468.05198861	    147.08326028	   -112.16969656	   1102.47423558	    134.22561682	     10.61108261	      3.50488208	     -1.83470757	     42.56351536	    -45.00000000	    -45.00000000	     34.05495608	   -600.24243942	    808.03172382	     10.74733121	    179.99999979	   1814.78201620	    202.47325914	      9.50992947	    -16.30252832
      3.92000000	    -38.87664691	     -8.42215216	     13.14905915	   -244.67137572	    847.12204713	      5.16581963	      7.87843349	    -45.00000000	     38.76300859	    -45.00000000	    -36.76954285	   2057.47034279	   -467.97879815	    147.20811629	   -112.36426998	   1102.53454842	    134.21601548	     10.48520748	      3.57679718	     -1.95142692	     42.36642330	    -45.00000000	    -45.00000000	     34.38968185	   -600.47287725	    808.12393260	     10.43497805	    179.99999979	   1814.68565177	    202.47792135	      9.47205732	    -16.26484819
      3.93000000	    -38.88085543	     -8.34266938	     13.06140511	   -243.80799993	    846.94093229	      5.18793205	      8.06751315	    -45.00000000	     38.85076472	    -45.00000000	    -36.50318668	   2057.48126875	   -468.00641814	    147.05951428	   -112.39872169	   1102.52172709	    134.20452604	     10.58551901	      3.41554136	     -1.99569799	     42.48712136	    -45.00000000	    -45.00000000	     34.84069607	   -600.21402350	    808.10241975	     10.74418413	    179.99999979	   1814.79024511	    202.53489007	      9.58698796	    -16.20275384
      3.94000000	    -38.77648603	     -8.35042117	     13.11081472	   -242.85972290	    846.72960404	      5.21248691	      7.96796190	    -45.00000000	     38.92012087	    -45.00000000	    -36.06367609	   2057.53518556	   -467.94256085	    147.13093106	   -112.59759910	   1102.48999568	    134.19764033	     10.49645675	      3.47006432	     -2.08101627	     42.24716747	    -45.00000000	    -45.00000000	     35.24052499	   -600.27079513	    808.22840460	     10.48834679	    179.99999979	   1814.67322201	    202.55546737	      9.56518187	    -16.15672437
